<?xml version="1.0" encoding="UTF-8" standalone="no"?> <svg id="Layer_1" data-name="Layer 1" xmlns="http://www.w3.org/2000/svg" viewBox="0 0 128 128"><defs><style>.cls-1{fill:#1d75b8;}.cls-2{fill:#2d3e50;}</style></defs><title>a</title><path class="cls-1" d="M104.60666,84.29088a5.33853,5.33853,0,0,0-4.96507,3.867H93.80127a1.45344,1.45344,0,0,0-1.44815,1.44815,1.39337,1.39337,0,0,0,1.43223,1.41631h5.84033a5.30256,5.30256,0,0,0,10.40756-1.43223v-.1273a5.29916,5.29916,0,0,0-5.42658-5.172Z"/><path class="cls-1" d="M122.74828,84.48184V79.73955a5.78646,5.78646,0,0,0-5.77667-5.77667H93.80127a1.44819,1.44819,0,1,0,.0159,2.89629h23.17036a2.90687,2.90687,0,0,1,2.89629,2.8963v4.72637a5.29926,5.29926,0,1,0,2.86447,0Z"/><path class="cls-1" d="M93.78535,62.63781h5.84033a5.30256,5.30256,0,0,0,10.40756-1.43223v-.12732a5.29916,5.29916,0,0,0-5.42658-5.17194,5.33853,5.33853,0,0,0-4.96507,3.867H93.80127a1.45344,1.45344,0,0,0-1.44815,1.44815A1.39338,1.39338,0,0,0,93.78535,62.63781Z"/><path class="cls-1" d="M34.19875,88.15791H28.35842a5.2918,5.2918,0,0,0-8.75253-2.403,5.2635,5.2635,0,0,0-1.63911,3.70791v.1273a5.30317,5.30317,0,0,0,10.40756,1.43223h5.84033a1.39337,1.39337,0,0,0,1.43223-1.41631A1.45344,1.45344,0,0,0,34.19875,88.15791Z"/><path class="cls-1" d="M34.19875,73.96288H11.02839a5.78646,5.78646,0,0,0-5.77667,5.77667v4.74229a5.29926,5.29926,0,1,0,2.86447,0V79.75547a2.90689,2.90689,0,0,1,2.8963-2.8963H34.18285a1.44819,1.44819,0,1,0,.0159-2.89629Z"/><path class="cls-1" d="M34.19875,59.77335H28.35842a5.2918,5.2918,0,0,0-8.75253-2.403,5.26349,5.26349,0,0,0-1.63911,3.70789v.12732a5.30317,5.30317,0,0,0,10.40756,1.43223h5.84033A1.39338,1.39338,0,0,0,35.6469,61.2215,1.45344,1.45344,0,0,0,34.19875,59.77335Z"/><path class="cls-2" d="M84.80215,57.69746H81.57337c-.00923,0-.02151-.00308-.03073-.00308V50.66232A17.56551,17.56551,0,0,0,64.00218,33.11454v-.00531A17.56556,17.56556,0,0,0,46.45736,50.65712v7.03207c-.00923,0-.02151.00308-.03073.00308H43.19785a2.73431,2.73431,0,0,0-2.73419,2.73419V90.3703a2.73628,2.73628,0,0,0,2.73419,2.73419h20.8v.00519H84.80215a2.73628,2.73628,0,0,0,2.73419-2.73419V60.43164A2.73431,2.73431,0,0,0,84.80215,57.69746ZM66.99006,75.83213l-.424.33485v5.7387l.00308.03379a2.45984,2.45984,0,0,1-1.2565,2.25186,2.90131,2.90131,0,0,1-1.3105.31312v-.005a2.90132,2.90132,0,0,1-1.31485-.31336,2.45984,2.45984,0,0,1-1.2565-2.25186l.00308-.03379v-5.7387l-.424-.33485a4.52433,4.52433,0,0,1-1.73882-3.67733A4.76138,4.76138,0,0,1,63.142,67.57524h.00615a4.50345,4.50345,0,0,1,.84969-.08884v.005a4.50485,4.50485,0,0,1,.854.08908H64.858a4.76138,4.76138,0,0,1,3.87087,4.57438A4.52433,4.52433,0,0,1,66.99006,75.83213Zm8.17488-18.13468H64.00218v-.00519H52.83506V50.65712A11.18173,11.18173,0,0,1,63.99782,39.487v.00508A11.18178,11.18178,0,0,1,75.16494,50.66232Z"/></svg>