<?xml version="1.0" encoding="UTF-8" standalone="no"?> <svg xmlns="http://www.w3.org/2000/svg" viewBox="0 0 512 512"><g id="flat"><rect x="40" y="40" width="64" height="72" style="fill:#dbdbdb"/><rect x="64" y="56" width="16" height="16" style="fill:#c3c3c3"/><rect x="408" y="40" width="64" height="72" style="fill:#dbdbdb"/><rect x="432" y="56" width="16" height="16" style="fill:#c3c3c3"/><path d="M256,440H136a48,48,0,0,1-48-48V248H56V392a80,80,0,0,0,80,80H256Z" style="fill:#ea9d2d"/><path d="M256,440H376a48,48,0,0,0,48-48V248h32V392a80,80,0,0,1-80,80H256Z" style="fill:#ea9d2d"/><path d="M256,415.5v-16a55.516,55.516,0,0,0,47.953-83.463l13.813-8.074A71.516,71.516,0,0,1,256,415.5Z" style="fill:#c0f5f9"/><path d="M290.957,300.89A54.862,54.862,0,0,0,256,288.5v-16a71.659,71.659,0,0,1,45.043,15.97Z" style="fill:#c0f5f9"/><path d="M256,216A128,128,0,1,0,384,344,128,128,0,0,0,256,216Zm0,224a96,96,0,1,1,96-96A96,96,0,0,1,256,440Z" style="fill:#f3af3e"/><rect x="24" y="104" width="96" height="80" style="fill:#4799cf"/><rect x="64" y="80" width="16" height="32" style="fill:#c3c3c3"/><polygon points="120 184 88 248 56 248 24 184 120 184" style="fill:#428dc5"/><path d="M82,136H62a6,6,0,0,1-6-6V104H88v26A6,6,0,0,1,82,136Z" style="fill:#428dc5"/><polygon points="108 208 100 224 44 224 36 208 108 208" style="fill:#3775a4"/><rect x="392" y="104" width="96" height="80" style="fill:#4799cf"/><rect x="432" y="80" width="16" height="32" style="fill:#c3c3c3"/><polygon points="488 184 456 248 424 248 392 184 488 184" style="fill:#428dc5"/><path d="M430,136h20a6,6,0,0,0,6-6V104H424v26A6,6,0,0,0,430,136Z" style="fill:#428dc5"/><polygon points="476 208 468 224 412 224 404 208 476 208" style="fill:#3775a4"/><rect x="56" y="248" width="32" height="16" style="fill:#da922a"/><rect x="424" y="248" width="32" height="16" style="fill:#da922a"/></g></svg>